<svg width="24" height="24" viewBox="0 0 24 24" fill="none" xmlns="http://www.w3.org/2000/svg">
<path d="M21.1668 15.6668V4.66683C21.1668 4.1806 20.9737 3.71428 20.6299 3.37047C20.286 3.02665 19.8197 2.8335 19.3335 2.8335H8.3335C7.84727 2.8335 7.38095 3.02665 7.03713 3.37047C6.69332 3.71428 6.50016 4.1806 6.50016 4.66683V15.6668C6.50016 16.1531 6.69332 16.6194 7.03713 16.9632C7.38095 17.307 7.84727 17.5002 8.3335 17.5002H19.3335C19.8197 17.5002 20.286 17.307 20.6299 16.9632C20.9737 16.6194 21.1668 16.1531 21.1668 15.6668ZM2.8335 6.50016V19.3335C2.8335 19.8197 3.02665 20.286 3.37047 20.6299C3.71428 20.9737 4.1806 21.1668 4.66683 21.1668H17.5002V19.3335H4.66683V6.50016" fill="#F2D8D5"/>
</svg>
